<svg width="20" height="20" viewBox="0 0 20 20" fill="none" xmlns="http://www.w3.org/2000/svg">
<path d="M10 0C4.48 0 0 4.48 0 10C0 15.52 4.48 20 10 20C15.52 20 20 15.52 20 10C20 4.48 15.52 0 10 0ZM5.58 14.42C5.87 14.71 5.87 15.19 5.58 15.48C5.43 15.63 5.24 15.7 5.05 15.7C4.86 15.7 4.67 15.63 4.52 15.48C3.79852 14.7617 3.22646 13.9076 2.83684 12.9671C2.44723 12.0265 2.24778 11.0181 2.25 10C2.25 7.93 3.06 5.98 4.52 4.52C4.81 4.23 5.29 4.23 5.58 4.52C5.87 4.81 5.87 5.29 5.58 5.58C4.99789 6.15916 4.53642 6.84802 4.2223 7.60671C3.90819 8.3654 3.74765 9.17886 3.75 10C3.75 11.67 4.4 13.24 5.58 14.42ZM11.65 9.78C12.61 10.12 13.08 10.79 13.08 11.84C13.08 13.04 12.14 14.01 10.97 14.01H10.74V14.19C10.74 14.6 10.4 14.94 9.99 14.94C9.58 14.94 9.24 14.6 9.24 14.19V14.01H9.21C7.94 14.01 6.9 12.94 6.9 11.63C6.9 11.22 7.24 10.88 7.65 10.88C8.06 10.88 8.4 11.22 8.4 11.63C8.4 12.12 8.76 12.51 9.21 12.51H9.24V10.53L8.34 10.21C7.38 9.87 6.91 9.2 6.91 8.15C6.91 6.95 7.85 5.98 9.02 5.98H9.25V5.8C9.25 5.39 9.59 5.05 10 5.05C10.41 5.05 10.75 5.39 10.75 5.8V5.98H10.78C12.05 5.98 13.09 7.05 13.09 8.36C13.09 8.77 12.75 9.11 12.34 9.11C11.93 9.11 11.59 8.77 11.59 8.36C11.59 7.87 11.23 7.48 10.78 7.48H10.75V9.46L11.65 9.78ZM15.48 15.48C15.33 15.63 15.14 15.7 14.95 15.7C14.76 15.7 14.57 15.63 14.42 15.48C14.2805 15.3389 14.2023 15.1484 14.2023 14.95C14.2023 14.7516 14.2805 14.5611 14.42 14.42C15.0021 13.8408 15.4636 13.152 15.7777 12.3933C16.0918 11.6346 16.2523 10.8211 16.25 10C16.25 8.33 15.6 6.76 14.42 5.58C14.2805 5.43886 14.2023 5.24843 14.2023 5.05C14.2023 4.85157 14.2805 4.66114 14.42 4.52C14.71 4.23 15.19 4.23 15.48 4.52C16.2015 5.23829 16.7735 6.09237 17.1632 7.03294C17.5528 7.97351 17.7522 8.98193 17.75 10C17.75 12.07 16.94 14.02 15.48 15.48Z" fill="black"/>
</svg>
